<svg xmlns="http://www.w3.org/2000/svg" width="512" height="512" id="barley"><g fill="none" fill-rule="evenodd"><path fill="#FEFEFE" d="M254.974 500.979V222.238v278.74Z"></path><path fill="#2E2E30" d="M254.972 511.11c-5.561 0-10.075-4.532-10.075-10.13V222.24c0-5.598 4.514-10.129 10.075-10.129 5.562 0 10.075 4.531 10.075 10.129v278.74c0 5.598-4.513 10.13-10.075 10.13"></path><path fill="#FDDA00" d="M137.075 316.772v40.373c0 32.56 18.122 62.379 46.944 77.234l70.955 36.571v-18.204c0-43.108-23.2-82.832-60.645-103.846l-57.254-32.128zm0-94.534v40.373c0 32.56 18.122 62.379 46.944 77.234l70.955 36.571v-18.204c0-43.108-23.2-82.832-60.645-103.846l-57.254-32.128zm0-94.534v40.372c0 32.56 18.122 62.38 46.944 77.235l70.955 36.571v-18.204c0-43.108-23.2-82.833-60.645-103.846l-57.254-32.128z"></path><path fill="#88441E" d="m194.331 348.902-57.253-32.128v13.363l25.705 14.423c38.769 21.763 62.795 62.906 62.795 107.54v3.7l29.392 15.152v-18.204c0-43.108-23.2-82.839-60.639-103.846m0-94.534-57.253-32.128v10.007l25.705 14.423c38.769 21.757 62.795 62.9 62.795 107.54v7.056l29.392 15.152v-18.204c0-43.108-23.2-82.84-60.639-103.846m0-94.534-57.253-32.128v6.65l25.705 14.424c38.769 21.75 62.795 62.899 62.795 107.54v10.412l29.392 15.152V263.68c0-43.108-23.2-82.84-60.639-103.846" opacity=".3"></path><path fill="#FDDA00" d="M372.876 316.772v40.373c0 32.56-18.128 62.379-46.943 77.234L254.97 470.95v-18.204c0-43.108 23.207-82.832 60.653-103.846l57.253-32.128zm0-94.534v40.373c0 32.56-18.128 62.379-46.943 77.234l-70.963 36.571v-18.204c0-43.108 23.207-82.832 60.653-103.846l57.253-32.128zm0-94.534v40.372c0 32.56-18.128 62.38-46.943 77.235l-70.963 36.571v-18.204c0-43.108 23.207-82.833 60.653-103.846l57.253-32.128z"></path><path fill="#88441E" d="M346.01 331.85v25.294c0 32.56-18.13 62.38-46.944 77.235l-44.096 22.728v13.85l70.963-36.578c28.815-14.856 46.943-44.675 46.943-77.235v-40.373L346.01 331.85zm0-94.535v25.295c0 32.56-18.13 62.379-46.944 77.234l-44.096 22.73v13.848l70.963-36.578c28.815-14.855 46.943-44.674 46.943-77.234v-40.373l-26.867 15.078zm0-94.534v25.295c0 32.56-18.13 62.379-46.944 77.234L254.97 268.04v13.85l70.963-36.579c28.815-14.855 46.943-44.674 46.943-77.234v-40.373L346.01 142.78z" opacity=".3"></path><path fill="#FDDA00" d="M254.972 222.238c77.283-98.91 0-175.564 0-175.564s-77.276 76.654 0 175.564"></path><path fill="#88441E" d="M254.972 46.674s-1.377 1.385-3.546 3.944c11.07 39.873 18.196 97.903-.76 165.8 1.411 1.93 2.775 3.862 4.306 5.82 77.283-98.91 0-175.564 0-175.564" opacity=".3"></path><path fill="#2E2E30" d="M147.15 334.026v23.12c0 28.894 15.885 55.04 41.47 68.22l56.28 29.009v-1.628c0-39.394-21.26-75.803-55.481-95l-42.269-23.721ZM254.974 481.08a9.99 9.99 0 0 1-4.6-1.114l-70.95-36.57c-32.34-16.673-52.424-49.72-52.424-86.25v-40.373c0-3.592 1.894-6.92 4.97-8.737a10.03 10.03 0 0 1 10.015-.108l57.26 32.134c40.59 22.776 65.804 65.952 65.804 112.685v18.205c0 3.531-1.826 6.806-4.822 8.643a9.988 9.988 0 0 1-5.253 1.485Z"></path><path fill="#2E2E30" d="M147.15 239.492v23.12c0 28.894 15.885 55.04 41.47 68.22l56.28 29.008v-1.627c0-39.394-21.26-75.803-55.481-95l-42.269-23.721Zm107.824 147.054a9.99 9.99 0 0 1-4.6-1.114l-70.95-36.571C147.084 332.189 127 299.143 127 262.612v-40.373c0-3.592 1.894-6.921 4.97-8.738a10.03 10.03 0 0 1 10.015-.108l57.26 32.135c40.59 22.776 65.804 65.951 65.804 112.685v18.205c0 3.531-1.826 6.806-4.822 8.643a9.988 9.988 0 0 1-5.253 1.485Z"></path><path fill="#2E2E30" d="M147.15 144.957v23.12c0 28.895 15.885 55.04 41.47 68.22l56.28 29.01v-1.628c0-39.394-21.26-75.803-55.481-95l-42.269-23.722zm107.824 147.055a9.99 9.99 0 0 1-4.6-1.114l-70.95-36.571C147.084 237.655 127 204.609 127 168.077v-40.372c0-3.592 1.894-6.921 4.97-8.738a10.046 10.046 0 0 1 10.015-.108l57.26 32.135c40.59 22.776 65.804 65.951 65.804 112.685v18.204c0 3.532-1.826 6.807-4.822 8.644a9.988 9.988 0 0 1-5.253 1.485zm107.827 42.014-42.268 23.721c-34.229 19.204-55.488 55.606-55.488 95v1.634l56.287-29.015c25.584-13.187 41.47-39.326 41.47-68.22v-23.12zM254.971 481.08a9.988 9.988 0 0 1-5.253-1.485 10.133 10.133 0 0 1-4.823-8.643v-18.205c0-46.727 25.222-89.909 65.811-112.685l57.26-32.134a10.046 10.046 0 0 1 10.015.108 10.149 10.149 0 0 1 4.97 8.737v40.373c0 36.524-20.083 69.577-52.424 86.242l-70.956 36.578a9.99 9.99 0 0 1-4.6 1.114z"></path><path fill="#2E2E30" d="m362.801 239.492-42.268 23.721c-34.229 19.204-55.488 55.606-55.488 95v1.634l56.287-29.015c25.584-13.188 41.47-39.326 41.47-68.22v-23.12Zm-107.83 147.054a9.988 9.988 0 0 1-5.253-1.485 10.133 10.133 0 0 1-4.823-8.643v-18.205c0-46.727 25.222-89.909 65.811-112.685l57.26-32.135a10.03 10.03 0 0 1 10.015.108 10.149 10.149 0 0 1 4.97 8.738v40.373c0 36.524-20.083 69.577-52.424 86.242l-70.956 36.578a9.99 9.99 0 0 1-4.6 1.114Z"></path><path fill="#2E2E30" d="m362.801 144.957-42.268 23.722c-34.229 19.204-55.488 55.606-55.488 95v1.634l56.287-29.015c25.584-13.188 41.47-39.326 41.47-68.22v-23.12Zm-107.83 147.055a9.988 9.988 0 0 1-5.253-1.485 10.133 10.133 0 0 1-4.823-8.644V263.68c0-46.727 25.222-89.909 65.811-112.685l57.26-32.135a10.062 10.062 0 0 1 10.015.108 10.149 10.149 0 0 1 4.97 8.738v40.373c0 36.524-20.083 69.577-52.424 86.242l-70.956 36.578a9.99 9.99 0 0 1-4.6 1.114Z"></path><path fill="#2E2E30" d="M255.005 62.18c-15.274 20.13-46.157 74.595-.033 142.923 46.365-68.578 15.401-122.847.033-142.922m-.033 170.188c-3.09 0-6.012-1.431-7.926-3.876-65.515-83.865-28.09-160.316.846-189.028a10.05 10.05 0 0 1 14.16 0c28.942 28.712 66.374 105.163.845 189.028a10.065 10.065 0 0 1-7.925 3.876"></path><path fill="#2E2E30" d="M255.005 62.18c-15.274 20.13-46.157 74.595-.033 142.923 46.365-68.578 15.401-122.847.033-142.922m-.033 170.188c-3.09 0-6.012-1.431-7.926-3.876-65.515-83.865-28.09-160.316.846-189.028a10.05 10.05 0 0 1 14.16 0c28.942 28.712 66.374 105.163.845 189.028a10.065 10.065 0 0 1-7.925 3.876"></path><path fill="#FEFEFE" d="M137.075 127.704V84.94"></path><path fill="#2E2E30" d="M137.075 137.832c-5.561 0-10.075-4.53-10.075-10.128V84.94c0-5.597 4.514-10.128 10.075-10.128 5.562 0 10.075 4.53 10.075 10.128v42.764c0 5.597-4.513 10.128-10.075 10.128"></path><path fill="#FEFEFE" d="M372.876 127.704V84.94"></path><path fill="#2E2E30" d="M372.876 137.832c-5.561 0-10.075-4.53-10.075-10.128V84.94c0-5.597 4.514-10.128 10.075-10.128 5.562 0 10.075 4.53 10.075 10.128v42.764c0 5.597-4.513 10.128-10.075 10.128"></path><path fill="#FEFEFE" d="M254.972 46.674V12.912"></path><path fill="#2E2E30" d="M254.972 56.803c-5.561 0-10.075-4.53-10.075-10.129V12.912c0-5.598 4.514-10.129 10.075-10.129 5.562 0 10.075 4.531 10.075 10.13v33.761c0 5.598-4.513 10.129-10.075 10.129"></path></g></svg>