<svg xmlns="http://www.w3.org/2000/svg" enable-background="new 0 0 2000 2000" viewBox="0 0 2000 2000" id="chili-pepper"><path fill="#ff1a46" stroke="#231f20" stroke-linecap="round" stroke-linejoin="round" stroke-miterlimit="10" stroke-width="14.588" d="
				M1216.917,601.969c5.218-29.311,20.513-56.162,43.819-74.687c40.923-32.529,119.091-51.574,262.627,31.303
				c186.474,107.67,98.638,259.794,98.638,259.794s-330.344,522.891-926.379,816.284c-47.367,23.316-96.412,45.182-147.102,65.222
				c-96.823,38.277-199.649,69.888-308.252,92.202c-13.961,2.869-21.377-15.872-9.197-23.275
				c98.554-59.894,299.162-191.005,494.983-374.444c24.957-23.379,49.837-47.608,74.417-72.648
				c100.343-102.219,195.705-217.952,271.038-344.538C1140.875,860.621,1193.26,734.858,1216.917,601.969z"></path><path fill="#db1443" d="M1227.684,944.168c20.873-37.419,43.727-73.671,67.451-109.35
				c29.359-44.154,63.476-101.912,73.777-145.295c17.59-74.079,162.552-51.874,136.479,51.909
				c-26.074,103.783-182.251,311.979-237.53,359.707c0,0-379.224,401.913-1042.938,691.245
				c491.233-296.626,491.481-301.212,491.481-301.212c56.211-44.155,121.401-101.007,177.137-164.587
				c25.418-28.995,52.115-56.843,79.942-83.535C1043.017,1176.353,1170.076,1047.442,1227.684,944.168z"></path><path fill="none" stroke="#fff" stroke-linecap="round" stroke-linejoin="round" stroke-miterlimit="10" stroke-width="14.588" d="
				M1231.467,762.042c0,0,16.982-34.834,38.807-89.887"></path><path fill="#43b543" stroke="#231f20" stroke-linecap="round" stroke-linejoin="round" stroke-miterlimit="10" stroke-width="14.588" d="
				M1653.543,641.93c-4.907-2.833-11.977,9.41-40.881-4.728c-18.283-26.98-46.582-53.953-89.299-78.617
				c-67.008-38.691-119.813-55.177-161.189-58.424c0,0-0.025-0.014-0.088-0.018c-1.624-0.643-31.863-12.64-32.142-28.701
				c21.425,2.556,124.95-26.353,178.788,8.005c0,0,100.4-95.505,174.123-206.737c14.83-22.375,34.531-41.262,57.825-54.603
				c14.965-8.571,28.338-13.434,33.07-8.541c9.441,9.77-34.039,34.039-50.745,55.897c-6.89,9.015-119.357,207.05-175.372,248.023
				c0,0,12.586,10.283,18.998,15.381c6.265,4.98,12.048,10.514,16.285,17.303C1603.465,579.094,1640.803,634.574,1653.543,641.93z"></path><path fill="none" stroke="#fff" stroke-linecap="round" stroke-linejoin="round" stroke-miterlimit="10" stroke-width="14.588" d="M1248.115 900.75c0 0 101.628-130.501 120.797-211.228 17.59-74.079 162.552-51.874 136.479 51.909-26.074 103.783-182.251 311.979-237.53 359.707M716.404 1491.171c67.457-52.989 147.845-124.263 209.307-203.509M490.746 1639.426c0 0 32.986-20.341 80.88-55.172"></path></svg>