<svg xmlns="http://www.w3.org/2000/svg" viewBox="0 0 64 64" id="lavender"><path fill="#99c" d="M13.81,16.89c-.34-.75-.52-1.59-.4-2.4s.57-1.6,1.28-2.02c.57-.34,1.34-.42,1.91-.06,.44,.28,.7,.76,.88,1.25,.6,1.6,.55,3.72-.36,5.21-1.05,1.72-2.85-.97-3.3-1.98Z"></path><path fill="#617999" d="M17.79 18.11c.45-.69 1.06-1.29 1.81-1.63s1.65-.38 2.39 0c.6.3 1.07.91 1.07 1.58 0 .52-.27 1-.58 1.41-1.03 1.37-2.84 2.46-4.59 2.49-2.01.04-.71-2.93-.11-3.85zM19.03 22.56c.66-.5 1.43-.86 2.25-.92s1.68.2 2.25.79c.46.48.7 1.21.48 1.85-.17.49-.59.85-1.02 1.14-1.43.94-3.5 1.36-5.16.81-1.91-.64.32-3 1.19-3.66zM17.88 28.11c.63-.53 1.39-.93 2.21-1.03s1.69.12 2.29.68c.49.46.76 1.18.57 1.82-.15.5-.55.88-.97 1.19-1.38 1.01-3.43 1.53-5.11 1.06-1.94-.55.17-3.01 1.01-3.71zM17.16 33.21c.61-.55 1.36-.97 2.17-1.1s1.7.07 2.31.61c.5.45.8 1.15.63 1.8-.13.5-.52.9-.93 1.21-1.35 1.05-3.38 1.64-5.08 1.21-1.95-.49.08-3.01.9-3.74z"></path><path fill="#617999" d="M16.91,37.78c.63-.53,1.39-.93,2.21-1.03s1.69,.12,2.29,.68c.49,.46,.76,1.18,.57,1.82-.15,.5-.55,.88-.97,1.19-1.38,1.01-3.43,1.53-5.11,1.06-1.94-.55,.17-3.01,1.01-3.71Z"></path><path fill="#99c" d="M14.65 19.08c-.45-.69-1.06-1.29-1.81-1.63s-1.65-.38-2.39 0c-.6.3-1.07.91-1.07 1.58 0 .52.27 1 .58 1.41 1.03 1.37 2.84 2.46 4.59 2.49 2.01.04.71-2.93.11-3.85zM13.41 23.53c-.66-.5-1.43-.86-2.25-.92s-1.68.2-2.25.79c-.46.48-.7 1.21-.48 1.85.17.49.59.85 1.02 1.14 1.43.94 3.5 1.36 5.16.81 1.91-.64-.32-3-1.19-3.66zM13.6 29.08c-.63-.53-1.39-.93-2.21-1.03s-1.69.12-2.29.68c-.49.46-.76 1.18-.57 1.82.15.5.55.88.97 1.19 1.38 1.01 3.43 1.53 5.11 1.06 1.94-.55-.17-3.01-1.01-3.71zM13.35 34.18c-.61-.55-1.36-.97-2.17-1.1s-1.7.07-2.31.61c-.5.45-.8 1.15-.63 1.8.13.5.52.9.93 1.21 1.35 1.05 3.38 1.64 5.08 1.21 1.95-.49-.08-3.01-.9-3.74z"></path><path fill="#99c" d="M12.63 38.75c-.63-.53-1.39-.93-2.21-1.03s-1.69.12-2.29.68c-.49.46-.76 1.18-.57 1.82.15.5.55.88.97 1.19 1.38 1.01 3.43 1.53 5.11 1.06 1.94-.55-.17-3.01-1.01-3.71zM30.74 8.67c-.34-.75-.52-1.59-.4-2.4s.57-1.6 1.28-2.02c.57-.34 1.34-.42 1.91-.06.44.28.7.76.88 1.25.6 1.6.55 3.72-.36 5.21-1.05 1.72-2.85-.97-3.3-1.98z"></path><path fill="#617999" d="M34.72 9.89c.45-.69 1.06-1.29 1.81-1.63s1.65-.38 2.39 0c.6.3 1.07.91 1.07 1.58 0 .52-.27 1-.58 1.41-1.03 1.37-2.84 2.46-4.59 2.49-2.01.04-.71-2.93-.11-3.85zM35.96 14.34c.66-.5 1.43-.86 2.25-.92s1.68.2 2.25.79c.46.48.7 1.21.48 1.85-.17.49-.59.85-1.02 1.14-1.43.94-3.5 1.36-5.16.81-1.91-.64.32-3 1.19-3.66zM34.8 19.89c.63-.53 1.39-.93 2.21-1.03s1.69.12 2.29.68c.49.46.76 1.18.57 1.82-.15.5-.55.88-.97 1.19-1.38 1.01-3.43 1.53-5.11 1.06-1.94-.55.17-3.01 1.01-3.71zM34.08 24.99c.61-.55 1.36-.97 2.17-1.1s1.7.07 2.31.61c.5.45.8 1.15.63 1.8-.13.5-.52.9-.93 1.21-1.35 1.05-3.38 1.64-5.08 1.21-1.95-.49.08-3.01.9-3.74z"></path><path fill="#617999" d="M33.83,29.56c.63-.53,1.39-.93,2.21-1.03s1.69,.12,2.29,.68c.49,.46,.76,1.18,.57,1.82-.15,.5-.55,.88-.97,1.19-1.38,1.01-3.43,1.53-5.11,1.06-1.94-.55,.17-3.01,1.01-3.71Z"></path><path fill="#99c" d="M31.57 10.86c-.45-.69-1.06-1.29-1.81-1.63s-1.65-.38-2.39 0c-.6.3-1.07.91-1.07 1.58 0 .52.27 1 .58 1.41 1.03 1.37 2.84 2.46 4.59 2.49 2.01.04.71-2.93.11-3.85zM30.33 15.31c-.66-.5-1.43-.86-2.25-.92s-1.68.2-2.25.79c-.46.48-.7 1.21-.48 1.85.17.49.59.85 1.02 1.14 1.43.94 3.5 1.36 5.16.81 1.91-.64-.32-3-1.19-3.66zM30.52 20.86c-.63-.53-1.39-.93-2.21-1.03s-1.69.12-2.29.68c-.49.46-.76 1.18-.57 1.82.15.5.55.88.97 1.19 1.38 1.01 3.43 1.53 5.11 1.06 1.94-.55-.17-3.01-1.01-3.71zM30.28 25.96c-.61-.55-1.36-.97-2.17-1.1s-1.7.07-2.31.61c-.5.45-.8 1.15-.63 1.8.13.5.52.9.93 1.21 1.35 1.05 3.38 1.64 5.08 1.21 1.95-.49-.08-3.01-.9-3.74z"></path><path fill="#99c" d="M29.56,30.53c-.63-.53-1.39-.93-2.21-1.03s-1.69,.12-2.29,.68c-.49,.46-.76,1.18-.57,1.82,.15,.5,.55,.88,.97,1.19,1.38,1.01,3.43,1.53,5.11,1.06,1.94-.55-.17-3.01-1.01-3.71Z"></path><path fill="#617999" d="M34.02 33.68c.66-.5 1.43-.86 2.25-.92s1.68.2 2.25.79c.46.48.7 1.21.48 1.85-.17.49-.59.85-1.02 1.14-1.43.94-3.5 1.36-5.16.81-1.91-.64.32-3 1.19-3.66zM33.83 39.23c.63-.53 1.39-.93 2.21-1.03s1.69.12 2.29.68c.49.46.76 1.18.57 1.82-.15.5-.55.88-.97 1.19-1.38 1.01-3.43 1.53-5.11 1.06-1.94-.55.17-3.01 1.01-3.71z"></path><path fill="#99c" d="M29.56 35.37c-.63-.53-1.39-.93-2.21-1.03s-1.69.12-2.29.68c-.49.46-.76 1.18-.57 1.82.15.5.55.88.97 1.19 1.38 1.01 3.43 1.53 5.11 1.06 1.94-.55-.17-3.01-1.01-3.71zM29.31 40.47c-.61-.55-1.36-.97-2.17-1.1s-1.7.07-2.31.61c-.5.45-.8 1.15-.63 1.8.13.5.52.9.93 1.21 1.35 1.05 3.38 1.64 5.08 1.21 1.95-.49-.08-3.01-.9-3.74zM51.65 19.99c.4-.72.64-1.54.59-2.36s-.44-1.64-1.11-2.11c-.55-.39-1.3-.52-1.9-.21-.46.24-.76.71-.98 1.18-.72 1.55-.84 3.66-.05 5.22.91 1.79 2.92-.75 3.45-1.71zM47.58 20.89c-.4-.72-.96-1.37-1.68-1.76s-1.62-.51-2.38-.2c-.62.25-1.14.82-1.19 1.49-.04.52.19 1.02.47 1.46.92 1.44 2.64 2.67 4.38 2.84 2 .2.94-2.86.41-3.83zM46 25.23c-.62-.55-1.36-.97-2.17-1.1s-1.7.07-2.31.62c-.5.45-.8 1.16-.62 1.8.13.5.52.9.93 1.21 1.35 1.05 3.38 1.63 5.08 1.21 1.95-.49-.08-3.01-.9-3.74zM46.72 30.86c-.59-.58-1.31-1.04-2.12-1.2s-1.7-.02-2.34.5c-.52.42-.85 1.12-.71 1.77.11.51.48.92.87 1.26 1.3 1.11 3.3 1.8 5.01 1.46 1.97-.39.07-3.01-.72-3.78zM47.03 36c-.57-.59-1.28-1.08-2.08-1.27s-1.7-.07-2.35.43c-.53.41-.89 1.09-.77 1.75.09.51.45.93.83 1.28 1.27 1.15 3.24 1.9 4.97 1.61 1.98-.33.16-3.01-.6-3.8z"></path><path fill="#99c" d="M46.92,40.57c-.59-.58-1.31-1.04-2.12-1.2s-1.7-.02-2.34,.5c-.52,.42-.85,1.12-.71,1.77,.11,.51,.48,.92,.87,1.26,1.3,1.11,3.3,1.8,5.01,1.46,1.97-.39,.07-3.01-.72-3.78Z"></path><path fill="#617999" d="M50.64 22.1c.5-.65 1.16-1.21 1.93-1.48s1.68-.25 2.38.18c.57.35 1 .99.95 1.66-.04.52-.35.98-.69 1.36-1.14 1.28-3.02 2.23-4.77 2.13-2.01-.12-.48-2.97.19-3.84zM51.53 26.63c.69-.44 1.5-.75 2.32-.74s1.66.33 2.18.97c.42.52.61 1.27.34 1.88-.21.47-.65.8-1.11 1.05-1.5.83-3.6 1.08-5.2.4-1.85-.79.55-2.96 1.47-3.55zM50.9 32.16c.67-.48 1.46-.82 2.28-.86s1.68.25 2.23.86c.45.5.67 1.23.43 1.86-.19.48-.61.83-1.06 1.11-1.46.9-3.54 1.26-5.18.66-1.89-.7.4-2.98 1.3-3.62zM50.75 37.26c.66-.5 1.43-.86 2.25-.93s1.69.2 2.25.79c.46.48.71 1.21.48 1.85-.17.49-.59.85-1.02 1.14-1.43.94-3.5 1.37-5.16.81-1.91-.64.31-3 1.19-3.66z"></path><path fill="#3f7d3f" d="M14.97 45.56s.05 0 .07 0c.27-.04.46-.29.42-.57-.64-4.38-.06-8.94.51-13.35.51-3.97 1.03-8.07.69-12.12-.02-.27-.27-.48-.54-.46-.27.02-.48.26-.46.54.33 3.94-.19 7.99-.69 11.91-.57 4.48-1.17 9.11-.5 13.62.04.25.25.43.49.43zM31.77 45.56s.03 0 .04 0c.28-.02.48-.26.46-.54-.44-5.63.11-11.46.63-17.1.51-5.45 1.03-11.08.69-16.61-.02-.28-.25-.48-.53-.47-.28.02-.49.25-.47.53.33 5.45-.19 11.04-.69 16.45-.53 5.68-1.08 11.56-.63 17.27.02.26.24.46.5.46zM48.28 45c-.03.27.16.52.44.55.02 0 .04 0 .06 0 .25 0 .47-.19.5-.44.41-3.51.23-7.14.06-10.65-.19-3.95-.39-8.03.24-11.92.04-.27-.14-.53-.41-.57-.27-.05-.53.14-.57.41-.65 4-.45 8.14-.26 12.13.17 3.47.35 7.06-.05 10.48z"></path><polygon fill="#e2783d" points="53.46 60.04 11.61 60.04 8.76 45.06 56.32 45.06 53.46 60.04"></polygon></svg>