<svg xmlns="http://www.w3.org/2000/svg" width="512" height="512" enable-background="new 0 0 512 512" viewBox="0 0 512 512" id="lettuce"><path fill="#72B744" d="M359.545,222.552c0,109.969-26.402,199.115-58.973,199.115s-58.974-89.146-58.974-199.115
		c0-109.966,47.321-199.113,58.974-199.113S359.545,112.586,359.545,222.552z"></path><path fill="#81C341" d="M289.961,239.041c0,113.358-29.842,205.254-66.657,205.254c-36.814,0-66.658-91.896-66.658-205.254
		c0-113.359,41.479-205.255,66.658-205.255C248.481,33.786,289.961,125.682,289.961,239.041z"></path><path fill="#4BB749" d="M308.26,321.331c0,43.02-17.45,133.34-50.92,157.29c-4.08,2.92-8.4,4.86-12.96,5.6
		c-2.57,0.42-5.22,0.46-7.94,0.08c-47.08-6.569-92.239-25.38-70.069-53.649c-101.811-65.681-25.181-98.53-41.601-130.271
		c-9.85-6.57-28.46-21.899-28.46-38.32c0-16.42,31.98-32.96,10.94-77.73c-21.03-44.78,54.74-151.08,54.74-151.08
		c16.21-2.58,29.279,39.58,80.51,69.47c52.09,31.6,49.15,75.81,37.58,110.16C253.609,258.991,308.26,270.091,308.26,321.331z"></path><path fill="#0E9C49" d="M257.34,478.621c-4.08,2.92-8.4,4.86-12.96,5.6c-4.12-7.08-21.32-37.66-39.561-84.54
				c-2.149-5.52-4.319-11.27-6.479-17.239c-1.05-2.91-2.1-5.87-3.15-8.881c-8.34-23.939-17.01-52.84-24.02-85.239
				c-1.2-5.511-2.34-11.12-3.43-16.83c-3.761-19.75-6.83-40.621-8.811-62.321c-0.06-0.66-0.12-1.32-0.18-1.98
				c-2.71-30.96-3.181-63.57-0.24-96.98c0.34-3.86,3.74-6.7,7.59-6.36c3.851,0.34,6.7,3.73,6.36,7.58
				c-2.3,26.17-2.46,51.85-1.05,76.6c0.409,7.24,0.96,14.41,1.619,21.48c5.891,62.811,21.131,118.521,35.381,159.451
				c23.14,66.45,48.62,109.14,48.87,109.56C257.3,478.551,257.32,478.591,257.34,478.621z"></path><path fill="#0E9C49" d="M165.738 214.552c-1.479 0-2.97-.467-4.237-1.433-3.075-2.343-3.668-6.735-1.326-9.81.354-.465 35.539-46.771 46.438-71.542 1.556-3.538 5.686-5.148 9.227-3.588 3.538 1.557 5.145 5.688 3.588 9.227-11.569 26.292-46.63 72.436-48.116 74.387C169.934 213.602 167.849 214.552 165.738 214.552zM177.104 289.939c-.6 0-1.209-.078-1.815-.24-.888-.237-22.022-6.086-46.617-29.102-2.822-2.642-2.969-7.072-.327-9.895 2.642-2.822 7.07-2.969 9.894-.328 22.063 20.647 40.488 25.752 40.672 25.801 3.734 1 5.951 4.838 4.951 8.572C183.023 287.876 180.194 289.939 177.104 289.939zM210.134 401.02c-.654 0-1.32-.093-1.98-.287-2.175-.641-53.448-16.009-68.441-43.438-1.854-3.393-.608-7.646 2.784-9.5 3.392-1.853 7.646-.607 9.5 2.785 10.141 18.552 46.834 32.8 60.116 36.725 3.706 1.095 5.825 4.987 4.731 8.694C215.945 399.045 213.157 401.02 210.134 401.02z"></path><path fill="#27AA4A" d="M415.69,273.481c-0.811,16.409-45.931,67.949-57.2,100.949c-11.181,32.73-45.931,108.561-92.69,113.9
		c-0.39,0.05-0.77,0.09-1.16,0.12c-4.569,0.41-8.88-0.34-12.93-2.07c-37.851-16.149-52.97-118.05-50.66-164.28
		c2.56-51.17,57.69-59.529,33.56-106.9c-9.85-34.89-10.58-79.19,43.021-108.15c52.66-27.29,52.75-59.22,83.88-65.37
		c31.12-6.15,64.11,90.62,47.13,153.62C391.65,258.311,415.34,239.831,415.69,273.481z"></path><g><path fill="#0E9C49" d="M326.45,277.271c-1.311,5.461-2.65,10.931-4.021,16.4c-22.35,89.48-51.39,178.74-56.63,194.66
				c-0.39,0.05-0.77,0.09-1.16,0.12c-4.569,0.41-8.88-0.34-12.93-2.07c0.03-0.1,0.06-0.2,0.09-0.3c0.33-0.98,12.86-38.91,28.11-90.7
				c1.63-5.55,3.3-11.26,4.979-17.11c13.07-45.239,27.301-98.329,37.28-146.03c1.061-5.07,2.07-10.07,3.03-14.99
				c6.27-32.3,10.21-61.31,9.99-82.59c-0.04-3.87,3.06-7.03,6.92-7.07h0.08c3.829,0,6.949,3.08,7,6.92
				C349.55,169.181,339.62,222.42,326.45,277.271z"></path><path fill="#0E9C49" d="M330.014 235.878c-1.16 0-2.337-.29-3.422-.899-1.529-.861-37.66-21.522-53.901-60.5-1.486-3.569.201-7.667 3.77-9.154 3.568-1.486 7.666.2 9.154 3.769 14.34 34.417 47.516 53.499 47.849 53.687 3.361 1.902 4.551 6.17 2.653 9.534C334.829 234.596 332.457 235.878 330.014 235.878zM316.468 295.327c-2.915 0-5.636-1.836-6.627-4.75-1.243-3.66.716-7.636 4.376-8.88 18.4-6.255 50.05-19.189 56.645-27.273 2.444-2.996 6.855-3.443 9.85-.999 2.995 2.444 3.442 6.854.998 9.85-11.043 13.533-54.407 28.763-62.988 31.678C317.975 295.207 317.215 295.327 316.468 295.327zM287.648 401.018c-2.092 0-4.16-.934-5.54-2.716-1.626-2.102-39.854-51.849-40.952-84.207-.131-3.863 2.896-7.103 6.759-7.233 3.877-.142 7.103 2.896 7.233 6.759.784 23.111 27.72 62.779 38.032 76.114 2.365 3.058 1.804 7.454-1.253 9.819C290.652 400.54 289.145 401.018 287.648 401.018z"></path></g></svg>