<svg xmlns="http://www.w3.org/2000/svg" viewBox="0 0 128 128" id="potato"><path fill="#db8e28" d="M67.831,59.4355A155.3039,155.3039,0,0,0,69.18,43.8682c.2294-11.929-7.172-20.9351-11.5307-23S39.5871,19.191,35.4579,19.4859c-6.6358.4741-12.3877,9.0123-13.3053,17.959s-2.2941,22.252-5.2763,33.0339S8.6178,91.3544,7.93,98.2364s5.9645,15.37,17.8934,18.1228c15.4733,3.5708,33.367-8.2613,33.7485-24.1221Z"></path><path fill="#c66d1e" d="M57.6494,20.8685a17.1224,17.1224,0,0,0-4.82-1.1389A27.269,27.269,0,0,1,55.5256,32.009,148.0039,148.0039,0,0,1,54.24,46.8419l-7.87,31.254c-.3634,15.1127-17.413,26.3865-32.1563,22.9841A28.8038,28.8038,0,0,1,7.91,98.84c-.2584,6.7675,6.3288,14.8458,17.9135,17.5191C41.2963,119.93,59.19,108.098,59.5715,92.2371l8.26-32.8016A155.3009,155.3009,0,0,0,69.18,43.8682C69.4094,31.9392,62.008,22.933,57.6494,20.8685Z"></path><path fill="#8e3f09" d="M62.9854 43.4917a1.0011 1.0011 0 01-.9712-.7646c-.0152-.0635-1.5835-6.3926-5.1954-9.5792a17.3341 17.3341 0 00-8.8281-3.6533 1 1 0 01.1675-1.9931 19.1 19.1 0 019.9839 4.1464c4.0893 3.6084 5.7475 10.3248 5.8164 10.6089a1 1 0 01-.7368 1.2066A1.0105 1.0105 0 0162.9854 43.4917zM37.69 66.73a1.013 1.013 0 01-1.37.37c-1.45-.83-5.21-2.7-8.71-2.06a15.0156 15.0156 0 01-8.89-.78l-.31-.16c.15-.68.28-1.35.41-2.03l.8.4a13.3283 13.3283 0 007.63.6c4-.73 8.03 1.13 10.07 2.3A.9962.9962 0 0137.69 66.73zM31.0625 91.02a1.012 1.012 0 01-.2617-.0351 61.3517 61.3517 0 00-8.522-1.6177 1 1 0 01.2061-1.9893 62.3862 62.3862 0 018.8383 1.6763 1 1 0 01-.2607 1.9658zM53.3506 53.8149a.9959.9959 0 01-.65-.2407 21.4551 21.4551 0 00-4.9761-2.5757 1 1 0 01.7022-1.873 23.7734 23.7734 0 015.5757 2.93 1 1 0 01-.6514 1.7592zM40.0459 39.3628a.9957.9957 0 01-.3418-.0606 26.3 26.3 0 00-6.7695-.8574 1 1 0 010-2 27.7358 27.7358 0 017.4531.9776 1 1 0 01-.3418 1.94zM20.17 100.8a1.01 1.01 0 01-1.04.96 24.8667 24.8667 0 00-9.87 1.98l-.37.17A13.461 13.461 0 018.24 102l.19-.09a26.8478 26.8478 0 0110.78-2.15A.9972.9972 0 0120.17 100.8zM36.67 28.25a1.01 1.01 0 01-1.19.77c-4.06-.86-10.71 1.09-10.78 1.11l-.79.24a20.1225 20.1225 0 011.11-2.4v-.01c2.07-.52 7.23-1.67 10.87-.9A1.012 1.012 0 0136.67 28.25zM34.0815 49.4565a.9984.9984 0 01-.3418-.06 12.0308 12.0308 0 00-4.6147-.6318 1 1 0 01-.1807-1.9922 14.0739 14.0739 0 015.479.7441 1 1 0 01-.3418 1.94z"></path><path fill="#e59b30" d="M102.6145,26.9612c-4.5586-1.1807-14.8378.842-21.8388,7.3841-6.5711,6.14-11.093,14.7383-24.4928,22.4271C46.58,62.34,41.7505,62.3178,36.49,66.8084c-10.41,8.8869-7.9881,23.0866.0394,32.33s21.4927,18.3445,37.2451,9.812c19.5351-10.5815,33.2565-33.4189,40.459-42.9308s6.5148-21.1488,4.2045-25.3823S106.622,27.9992,102.6145,26.9612Z"></path><path fill="#d17a24" d="M118.4382,40.6371A30.4064,30.4064,0,0,0,113.12,34.39a27.27,27.27,0,0,1-5.3778,14.1286c-6.8106,8.9944-19.7853,30.5891-38.2576,40.5949-14.8952,8.0682-27.6278-.5379-35.2185-9.2782a28.4306,28.4306,0,0,1-3.4816-5.0138C27.77,82.889,30.6338,92.35,36.53,99.1381c8.0275,9.2432,21.4927,18.3446,37.2451,9.8121,19.5351-10.5815,33.2565-33.4189,40.459-42.9308S120.7485,44.8706,118.4382,40.6371Z"></path><g><path fill="#a0490e" d="M111.5518 56.6714a1 1 0 01-.9888-1.1553 14.7737 14.7737 0 00-.02-5.437 17.3337 17.3337 0 00-4.99-8.1475 1 1 0 011.3076-1.5136 19.091 19.091 0 015.6348 9.2265 16.7346 16.7346 0 01.043 6.1822A1 1 0 01111.5518 56.6714zM56.9365 102.5015a1.0012 1.0012 0 01-.959-.7183 30.8985 30.8985 0 00-4.0449-7.5669 1 1 0 011.6113-1.1846 32.3711 32.3711 0 014.3526 8.1871 1.0015 1.0015 0 01-.96 1.2827zM58.4238 84.8594a.9994.9994 0 01-.8359-.4492 56.5192 56.5192 0 00-8.0464-9.1856 1 1 0 111.3369-1.4873 57.5037 57.5037 0 018.3794 9.5713 1 1 0 01-.834 1.5508zM96.1694 64.9434a1 1 0 01-.9721-.7691 21.4968 21.4968 0 00-2.5093-5.01 1 1 0 011.6694-1.1016 23.7586 23.7586 0 012.7862 5.6494 1.0005 1.0005 0 01-.7422 1.2041A1.0211 1.0211 0 0196.1694 64.9434zM71.0054 82.4966a1 1 0 01-.9722-.7691 21.5116 21.5116 0 00-2.5093-5.0107 1 1 0 011.67-1.1011 23.788 23.788 0 012.7857 5.65 1.0005 1.0005 0 01-.7422 1.2041A1.02 1.02 0 0171.0054 82.4966zM93.9131 45.4292a.999.999 0 01-.83-.4409 26.2728 26.2728 0 00-4.9707-4.6758 1 1 0 111.1768-1.6172A27.7223 27.7223 0 0194.7412 43.87a1 1 0 01-.8281 1.5591zM84.4976 85.6714a1.0006 1.0006 0 01-.9488-.6841c-.602-1.8061-1.8593-4.6758-1.872-4.7046a1 1 0 111.831-.8037c.0532.1206 1.3071 2.9819 1.9385 4.8755a1.0012 1.0012 0 01-.9487 1.3169zM41.11 83.23a1 1 0 01-1.41.16 24.8086 24.8086 0 00-9.14-4.2l-.82-.17a16.6228 16.6228 0 01.36-1.97l.86.18a26.3107 26.3107 0 019.99 4.6A.9991.9991 0 0141.11 83.23zM97.13 34.26a1.0079 1.0079 0 01-.67.26.9807.9807 0 01-.74-.33c-1.88-2.09-5.5-3.84-7.6-4.74.84-.39 1.69-.74 2.53-1.05a21.9391 21.9391 0 016.55 4.45A.997.997 0 0197.13 34.26zM83.1519 50.0835a.9982.9982 0 01-.83-.4409 12.0694 12.0694 0 00-3.36-3.2261A1 1 0 1179.9873 44.7 14.046 14.046 0 0183.98 48.5244a1 1 0 01-.8281 1.5591zM75.65 67.03a.9462.9462 0 01-.33.05.9839.9839 0 01-.94-.67c-.02-.05-2.04-5.71-6.22-7.72a15.7627 15.7627 0 01-6.45-5.41c.55-.39 1.08-.78 1.6-1.19l.01.02a13.7247 13.7247 0 005.71 4.77c4.94 2.38 7.15 8.61 7.24 8.88A1.0014 1.0014 0 0175.65 67.03z"></path></g></svg>