<?xml version="1.0" encoding="iso-8859-1"?>
<!-- Uploaded to: SVG Repo, www.svgrepo.com, Generator: SVG Repo Mixer Tools -->
<svg height="800px" width="800px" version="1.1" id="Layer_1" xmlns="http://www.w3.org/2000/svg" xmlns:xlink="http://www.w3.org/1999/xlink" 
	 viewBox="0 0 512.001 512.001" xml:space="preserve">
<g>
	<path style="fill:#CCCCCF;" d="M413.29,374.88h-43.511v-33.392h43.511c6.348,0,11.856-4.079,13.71-10.15l29.202-95.688
		c1.34-4.39,0.542-9.024-2.189-12.713c-2.731-3.69-6.931-5.806-11.521-5.806h-54.372v-33.392h54.372
		c15.282,0,29.265,7.046,38.358,19.328c9.094,12.283,11.751,27.712,7.289,42.33l-29.202,95.687
		C452.769,361.299,434.424,374.88,413.29,374.88z"/>
	<path style="fill:#CCCCCF;" d="M191.065,107.553h-33.392c0-13.412,4.429-21.128,7.358-26.235c2.132-3.712,2.928-5.101,2.928-9.612
		c0-4.513-0.798-5.903-2.928-9.617c-2.931-5.106-7.358-12.824-7.358-26.236s4.429-21.129,7.358-26.236
		c2.13-3.713,2.928-5.103,2.928-9.617h33.392c0,13.414-4.429,21.13-7.358,26.236c-2.13,3.713-2.928,5.103-2.928,9.616
		c0,4.513,0.798,5.903,2.928,9.617c2.931,5.106,7.358,12.824,7.358,26.236s-4.429,21.128-7.358,26.235
		C191.862,101.654,191.065,103.043,191.065,107.553z"/>
</g>
<path style="fill:#AAA9AF;" d="M293.943,107.553h-33.392c0-13.414,4.429-21.129,7.36-26.235c2.13-3.712,2.928-5.101,2.928-9.612
	c0-4.512-0.798-5.903-2.928-9.616c-2.932-5.106-7.36-12.824-7.36-26.237s4.429-21.13,7.36-26.236
	c2.13-3.713,2.928-5.103,2.928-9.616h33.392c0,13.414-4.429,21.13-7.36,26.237c-2.13,3.713-2.928,5.102-2.928,9.615
	s0.798,5.903,2.928,9.616c2.932,5.106,7.36,12.824,7.36,26.237s-4.429,21.129-7.36,26.235
	C294.741,101.654,293.943,103.043,293.943,107.553z"/>
<polygon style="fill:#EDEDEE;" points="365.22,468.103 96.684,468.103 59.214,141.684 402.69,141.684 "/>
<g>
	<polygon style="fill:#DDDCDF;" points="365.22,468.103 231.135,468.103 231.135,141.684 402.69,141.684 	"/>
	<path style="fill:#DDDCDF;" d="M383.167,512.001H78.737c-31.476,0-56.992-25.517-56.992-56.992l0,0H440.16l0,0
		C440.16,486.485,414.643,512.001,383.167,512.001z"/>
</g>
<path style="fill:#CCCCCF;" d="M383.167,512.001H231.135v-56.992H21.744h418.416l0,0
	C440.16,486.485,414.643,512.001,383.167,512.001z"/>
<path style="fill:#C3E825;" d="M266.532,326.868c-36.499,36.499-101.666,30.506-101.666,30.506s-5.993-65.169,30.506-101.666
	s101.666-30.506,101.666-30.506S303.031,290.37,266.532,326.868z"/>
<path style="fill:#A8DD5E;" d="M266.532,326.868c-36.499,36.499-101.666,30.506-101.666,30.506l132.172-132.172
	C297.038,225.201,303.031,290.37,266.532,326.868z"/>
</svg>