<svg xmlns="http://www.w3.org/2000/svg" viewBox="0 0 512 512" id="tomato"><path fill="#e5303e" d="M504.35784,274.785v15.72a146.20509,146.20509,0,0,1-146.19995,146.2h-23.6001a145.49872,145.49872,0,0,1-53.15991-9.98c-1.59009-.61988-3.16992-1.26-4.74-1.94a146.23329,146.23329,0,0,1-88.3-134.28v-15.72a103.613,103.613,0,0,1,103.60987-103.6101H400.748A103.613,103.613,0,0,1,504.35784,274.785Z"></path><path fill="#37b678" d="M422.50775,211.62512a50.76744,50.76744,0,0,1,7.32006,23.52979c-2.76.43017-23.06,3.40014-40.94995-3.02979-.31006-.11011-.62988-.23-.93994-.3501-.33008-.12011-.65015-.25-.97021-.37988-.36988-.14014-.73975-.3-1.09986-.45019-.45-.19-.88989-.3899-1.33008-.59986-.85986-.39013-1.7-.81006-2.53-1.26-.24-.13012-.49-.26-.73-.3999-.32984-.18018-.64991-.37012-.96-.56006a.33624.33624,0,0,1-.10009-.06006c-.30982-.18017-.61988-.37011-.91993-.57006-.58007-.36011-1.15991-.74-1.72-1.1399-.34008-.24-.67993-.49-1.02-.74A34.80842,34.80842,0,0,1,366.248,213.535a34.9654,34.9654,0,0,1-10.32007,12.08008c-19.33008,14.51978-49.84009,10.07984-53.27,9.5398A44.622,44.622,0,0,1,336.03777,188.735a38.56594,38.56594,0,0,1-24.15991-12.29,36.26551,36.26551,0,0,1-3.91992-5.27,40.36545,40.36545,0,0,1-5.3501-24.8899c.02-.13989.04-.26.05-.3601,3.09986-.48975,28.26-4.14991,47.34986,5.82007a40.31313,40.31313,0,0,1-2.60987-22.41993,39.05012,39.05012,0,0,1,4.6001-12.63989q18.375-1.155,36.76978-2.30029a67.29375,67.29375,0,0,0-3.45,11.49023c-.85009,4.13989-1.5,7.31983-1.1499,11.49a29.81529,29.81529,0,0,0,3.45,11.49,98.19088,98.19088,0,0,1,42.21-2.93017,50.73558,50.73558,0,0,1-7.32006,23.52,51.83551,51.83551,0,0,1-25.42994,20.99023v.21A51.73553,51.73553,0,0,1,422.50775,211.62512Z"></path><path fill="#b72732" d="M365.65784,214.635l.59014-1.1,22.62986,18.59a116.5626,116.5626,0,0,1,2.2,22.57v17.58a163.586,163.586,0,0,1-109.68,154.45c-1.59-.62-3.17-1.26-4.74-1.94a146.2335,146.2335,0,0,1-88.3-134.28v-15.72a103.61285,103.61285,0,0,1,103.61-103.61h15.99l21.55,16.24h.02l.01.01,3.12,2.35Z"></path><path fill="#00a653" d="M388.87786,232.12512c-.31006-.11011-.62988-.23-.93994-.3501-.33008-.12011-.65015-.25-.97021-.37988-.36988-.14014-.73975-.3-1.09986-.45019-.45-.19-.88989-.3899-1.33008-.59986-.85986-.39013-1.7-.81006-2.53-1.26-.24-.13012-.49-.26-.73-.3999-.32984-.18018-.64991-.37012-.96-.56006a.33624.33624,0,0,1-.10009-.06006c-.30982-.18017-.61988-.37011-.91993-.57006-.58007-.36011-1.15991-.74-1.72-1.1399-.34008-.24-.67993-.49-1.02-.74A34.80842,34.80842,0,0,1,366.248,213.535a34.9654,34.9654,0,0,1-10.32007,12.08008c-19.33008,14.51978-49.84009,10.07984-53.27,9.5398A44.622,44.622,0,0,1,336.03777,188.735a38.56594,38.56594,0,0,1-24.15991-12.29,36.26551,36.26551,0,0,1-3.91992-5.27,40.36545,40.36545,0,0,1-5.3501-24.8899c2.54-.27,5.58008.66993,7.5,1.24,8.02,2.37012,15.62012,6.37012,22.95,10.32007,9.05,4.86988,18.1001,9.55,25.42994,16.90991A111.67852,111.67852,0,0,1,376.728,198.80505,110.37621,110.37621,0,0,1,388.87786,232.12512Z"></path><path fill="#e5303e" d="M123.52561,138.81452H245.19007A115.88346,115.88346,0,0,1,361.07353,254.698v17.58054A163.51653,163.51653,0,0,1,197.557,435.795h-26.3983A163.51653,163.51653,0,0,1,7.64216,272.27851V254.698A115.88346,115.88346,0,0,1,123.52561,138.81452Z"></path><path fill="#37b678" d="M218.71919,160.588v-.23909a57.9315,57.9315,0,0,0,28.4452-23.46723,56.85857,56.85857,0,0,0,8.17812-26.31187,109.66361,109.66361,0,0,0-47.20837,3.28141,33.31606,33.31606,0,0,1-3.85562-12.85205c-.39661-4.66059.33448-8.2211,1.28521-12.852A75.7426,75.7426,0,0,1,209.41934,75.295q-20.56344,1.28513-41.12656,2.57041A43.78546,43.78546,0,0,0,163.152,92.00271a45.07879,45.07879,0,0,0,2.92183,25.07734c-21.35053-11.15565-49.49294-7.05545-52.95728-6.51027-.34484,2.58688-2.36552,19.97919,10.31145,34.13418a43.105,43.105,0,0,0,27.02287,13.75053,49.89452,49.89452,0,0,0-37.33432,51.91243c3.83741.604,37.95622,5.57288,59.581-10.66695a38.97528,38.97528,0,0,0,11.532-13.51144A38.97051,38.97051,0,0,0,195.76121,199.7c21.62508,16.23983,55.74389,11.271,59.5813,10.66695a56.8581,56.8581,0,0,0-8.17812-26.31172A57.93156,57.93156,0,0,0,218.71919,160.588Z"></path><path fill="#00a653" d="M133.11663,210.36682a49.89425,49.89425,0,0,1,37.33423-51.91235,43.1048,43.1048,0,0,1-27.023-13.75049c-12.677-14.155-10.65625-31.54736-10.31128-34.13428.824-.12964,3.05664-.46,6.25-.73877a112.96663,112.96663,0,0,0-26.25.73877c-.345,2.58692-2.36572,19.97925,10.31128,34.13428a43.1048,43.1048,0,0,0,27.023,13.75049,49.89425,49.89425,0,0,0-37.33423,51.91235,113.02189,113.02189,0,0,0,26.24219.73926C136.16693,210.827,133.94036,210.4967,133.11663,210.36682Z"></path></svg>