<svg xmlns="http://www.w3.org/2000/svg" enable-background="new 0 0 50 50" viewBox="0 0 50 50" id="wheat-ear"><path fill="#696967" d="M13.7065 2.9917c-.2927.7118-.7138 1.3769-1.0292 1.7444l.703.4889c.2927-.5314.5832-1.3092.7372-2.1131.1524-.7577.1424-1.4461.0133-2.1641C14.1225 1.3051 13.9877 2.3257 13.7065 2.9917zM13.7906 11.1954l.743.4257c.5171-1.1699.787-2.8076.3745-4.3264.023.3567.0282.7091-.0218 1.0566C14.746 9.4093 14.2608 10.5395 13.7906 11.1954zM16.1998 17.0117l.743.4257c.5171-1.1699.787-2.8076.3745-4.3264.023.3567.0282.7091-.0218 1.0566C17.1552 15.2256 16.67 16.3557 16.1998 17.0117zM19.599 22.7494c.0916-.5257.1312-1.0902.1063-1.6605-.0265-.7724-.1951-1.4399-.4864-2.1088.1522.7142.1788 1.3736.0588 2.0867-.1241.7827-.3871 1.5242-.599 1.9348l.7968.3135C19.5321 23.1114 19.5666 22.9372 19.599 22.7494zM21.8524 26.9638c-.124.7818-.3867 1.5234-.599 1.9348l.7968.3135c.1516-.5466.2666-1.3798.2297-2.2262-.0267-.775-.1962-1.4425-.4864-2.1088C21.8681 25.2267 21.9721 26.2522 21.8524 26.9638zM4.7726 9.3166l.1677-.8397c-1.1551-.1108-2.6167-.673-3.6737-1.7226C2.1008 8.0054 3.4939 8.9191 4.7726 9.3166zM4.4874 11.6111c.7471 1.3045 2.0756 2.3113 3.324 2.7944l.2243-.8264C6.8965 13.3912 5.4701 12.7294 4.4874 11.6111zM9.4648 20.5348l.2243-.8264c-1.1446-.1888-2.5653-.8495-3.5483-1.968C6.8899 19.0482 8.1943 20.0431 9.4648 20.5348zM11.9134 26.4474l.3417-.7851c-1.1017-.3517-2.414-1.2108-3.2255-2.4617C9.5801 24.6004 10.7477 25.7879 11.9134 26.4474zM11.7147 29.0519c.5503 1.3992 1.7184 2.5877 2.8838 3.2468l.3417-.7851C13.8363 31.1612 12.5245 30.3003 11.7147 29.0519z"></path><path fill="#FFCA67" d="M10.7699,12.2556l-0.0007,0.0013c-3.4388,1.0741-7.0984-0.8435-8.1725-4.2823l0.0007-0.0013
		C6.0362,6.8992,9.6958,8.8168,10.7699,12.2556z"></path><path fill="#F5B948" d="M8.8152,9.2705c0.8887,0.767,1.5792,1.7829,1.9547,2.9851l-0.0007,0.0013
		c-2.6065,0.8141-5.3387-0.0906-6.976-2.0732c1.6492,1.4281,3.9798,1.9952,6.2165,1.2966l0.0007-0.0013
		C9.7504,10.6467,9.3394,9.9029,8.8152,9.2705z"></path><path fill="#FFCA67" d="M10.8697,12.2054l0.0014,0.0005c3.2223-1.6113,4.5288-5.5309,2.9175-8.7532l-0.0014-0.0005
		C10.5648,5.0635,9.2584,8.9831,10.8697,12.2054z"></path><path fill="#F5B948" d="M10.2075,8.6992c-0.1083,1.1689,0.0989,2.3797,0.6622,3.5062l0.0014,0.0005
		c2.4425-1.2213,3.7833-3.7681,3.5878-6.3319c-0.1976,2.1726-1.4833,4.1976-3.5792,5.2457l-0.0014-0.0005
		C10.4883,10.3393,10.2684,9.5183,10.2075,8.6992z"></path><path fill="#FFCA67" d="M13.6611,18.9721l-0.0009,0.0011c-3.576,0.4375-6.8306-2.1076-7.2682-5.6835l0.0009-0.0011
		C9.9689,12.8511,13.2236,15.3961,13.6611,18.9721z"></path><path fill="#F5B948" d="M12.2757,15.6839c0.7361,0.9144,1.2325,2.0381,1.3855,3.2882l-0.0009,0.0011
		c-2.7105,0.3316-5.2352-1.0502-6.489-3.2952c1.3652,1.7016,3.5557,2.679,5.8816,2.3945l0.0009-0.0011
		C12.9479,17.206,12.6775,16.4003,12.2757,15.6839z"></path><path fill="#FFCA67" d="M13.9589,18.9254l0.0014,0.0001c2.7652-2.3092,3.135-6.4242,0.8258-9.1895L14.7847,9.736
		C12.0194,12.0452,11.6496,16.1602,13.9589,18.9254z"></path><path fill="#F5B948" d="M12.508,15.6656c0.1635,1.1624,0.6436,2.2932,1.4509,3.2598l0.0014,0.0001
		c2.096-1.7503,2.815-4.5372,2.035-6.9873c0.3074,2.1598-0.478,4.4262-2.2766,5.9282l-0.0014-0.0001
		C13.1584,17.1971,12.7557,16.4487,12.508,15.6656z"></path><path fill="#FFCA67" d="M16.0022,24.479l-0.0008,0.0012c-3.5175,0.7791-7.0017-1.4415-7.7808-4.9589l0.0008-0.0012
		C11.7389,18.741,15.2231,20.9616,16.0022,24.479z"></path><path fill="#F5B948" d="M14.3072,21.3391c0.8206,0.8395,1.4226,1.9103,1.695,3.1399l-0.0008,0.0012
		c-2.6662,0.5905-5.312-0.5423-6.7757-2.6564c1.5224,1.5626,3.7967,2.325,6.0846,1.8183l0.0008-0.0012
		C15.1225,22.7895,14.776,22.0136,14.3072,21.3391z"></path><path fill="#FFCA67" d="M16.2332,24.681l0.0014,0.0001c2.7995-2.2676,3.2308-6.3766,0.9631-9.1761l-0.0014-0.0001
		C14.3969,17.7726,13.9656,21.8816,16.2332,24.681z"></path><path fill="#F5B948" d="M14.8312,21.3999c0.1461,1.1648,0.6093,2.3025,1.402,3.2812l0.0014,0.0001
		c2.1219-1.7188,2.8825-4.4946,2.1393-6.9561c0.2751,2.1641-0.5441,4.4186-2.365,5.8935l-0.0014-0.0002
		C15.4587,22.9409,15.0672,22.1866,14.8312,21.3999z"></path><path fill="#FFCA67" d="M18.3494,30.7419l-0.0008,0.0012c-3.5573,0.5698-6.9041-1.8528-7.4739-5.4101l0.0008-0.0012
		C14.4328,24.762,17.7795,27.1846,18.3494,30.7419z"></path><path fill="#F5B948" d="M16.843,27.5073c0.7695,0.8865,1.3072,1.991,1.5064,3.2346l-0.0008,0.0012
		c-2.6964,0.4319-5.2705-0.8554-6.6066-3.0523c1.4273,1.6498,3.6526,2.5453,5.9663,2.1747l0.0008-0.0012
		C17.5711,29.0034,17.271,28.2083,16.843,27.5073z"></path><path fill="#FFCA67" d="M18.7904,30.7831l0.0014,0.0001c2.7104-2.3733,2.9838-6.4958,0.6105-9.2063l-0.0014-0.0001
		C16.6905,23.9501,16.4171,28.0726,18.7904,30.7831z"></path><path fill="#F5B948" d="M17.2636,27.5581c0.1907,1.1583,0.6971,2.2775,1.5268,3.225l0.0014,0.0001
		c2.0545-1.7989,2.708-4.6018,1.8709-7.033c0.3579,2.152-0.3743,4.4362-2.1372,5.9799l-0.0014-0.0001
		C17.9498,29.0739,17.5296,28.3352,17.2636,27.5581z"></path><path fill="#FFCA67" d="M20.6854,36.9931l-0.0009,0.0011c-3.5846,0.3608-6.7839-2.2534-7.1445-5.838l0.0009-0.0011
		C17.1255,30.7943,20.3248,33.4085,20.6854,36.9931z"></path><path fill="#F5B948" d="M19.3709,33.6759c0.7163,0.93,1.1885,2.0641,1.3145,3.3172l-0.0009,0.0011
		c-2.7171,0.2735-5.2115-1.1621-6.4168-3.4334c1.3283,1.7305,3.4974,2.7546,5.8289,2.52l0.0009-0.0011
		C20.0103,35.2121,19.7572,34.4008,19.3709,33.6759z"></path><path fill="#FFCA67" d="M20.8784,36.8652l0.0014,0.0002c2.8347-2.2234,3.3304-6.3251,1.107-9.1598l-0.0014-0.0002
		C19.1508,29.9287,18.655,34.0305,20.8784,36.8652z"></path><path fill="#F5B948" d="M19.5281,33.5624c0.1278,1.1669,0.5731,2.3118,1.3503,3.3028l0.0014,0.0002
		c2.1486-1.6853,2.9527-4.4488,2.2482-6.9217c0.2411,2.1682-0.6134,4.4095-2.4572,5.8556l-0.0014-0.0002
		C20.1313,35.1131,19.7517,34.3528,19.5281,33.5624z"></path><path fill="#696967" d="M22.2867 48.9836c.0589-1.9659-.1338-3.8808-.437-5.3709-.3243-1.7949-.7536-3.5801-1.2492-5.3485-.9849-3.5398-2.1799-7.0289-3.4599-10.4852-1.2849-3.4554-2.6651-6.8777-4.106-10.2748-1.4444-3.3957-2.9438-6.7694-4.5214-10.1072 1.6632 3.2963 3.2497 6.6317 4.7826 9.9923 1.5294 3.3622 2.9996 6.7529 4.3772 10.1841 1.3728 3.4328 2.663 6.9036 3.7495 10.4516.5463 1.7728 1.0285 3.5696 1.408 5.3986.4744 2.0627.5906 3.8436.5957 5.6286L22.2867 48.9836zM36.2935 2.9917c.3014.733.7283 1.3938 1.0292 1.7444l-.703.4889c-.2734-.4962-.5777-1.2805-.7372-2.1131-.1524-.7577-.1424-1.4461-.0133-2.1641C35.8775 1.3051 36.0123 2.3257 36.2935 2.9917zM35.3363 9.3679c.2361.7558.6035 1.4513.8731 1.8275l-.743.4257c-.23-.5204-.464-1.3285-.55-2.1693-.086-.7708-.015-1.4557.1755-2.157-.023.3567-.0282.7091.0218 1.0566C35.1597 8.698 35.2299 9.0384 35.3363 9.3679zM32.9271 15.1842c.2295.7346.591 1.4339.8731 1.8275l-.743.4257c-.242-.5476-.4658-1.3464-.55-2.1693-.086-.7708-.015-1.4557.1755-2.157C32.6357 13.8415 32.7055 14.4974 32.9271 15.1842zM30.2947 21.0888c.0265-.7724.1951-1.4399.4864-2.1088-.1522.7142-.1788 1.3736-.0588 2.0867.1241.7827.3871 1.5242.599 1.9348l-.7968.3135C30.373 22.7691 30.2578 21.9356 30.2947 21.0888zM28.1476 26.9638c.124.7818.3867 1.5234.599 1.9348l-.7968.3135c-.1593-.5743-.2657-1.4-.2297-2.2262.0267-.775.1962-1.4425.4864-2.1088C28.1319 25.2267 28.0279 26.2522 28.1476 26.9638zM47.2236 8.3047c-.4677.3307-.9637.6025-1.4538.8095-.1755.0745-.3406.1397-.5424.2024l-.1677-.8397c.4671-.0448 1.2324-.2273 1.951-.5437.6631-.2845 1.2035-.6634 1.7227-1.179C48.3316 7.3569 47.8626 7.8615 47.2236 8.3047zM45.5126 11.6111c-.7471 1.3045-2.0756 2.3113-3.324 2.7944l-.2243-.8264C43.1035 13.3912 44.5299 12.7294 45.5126 11.6111zM40.5352 20.5348l-.2243-.8264c.4647-.0767 1.2154-.3111 1.9096-.6748.6413-.3284 1.1547-.7424 1.6387-1.2932-.3601.6287-.7937 1.1639-1.4012 1.6494C41.7968 19.9283 41.0587 20.3322 40.5352 20.5348zM38.5738 26.1347c-.1557.1099-.3033.2087-.4872.3127l-.3417-.7851c.4472-.1427 1.1563-.4832 1.7916-.9446.5869-.4179 1.0348-.902 1.4339-1.5171-.2669.6789-.6197 1.2701-1.1472 1.8351C39.4369 25.457 39.0098 25.828 38.5738 26.1347zM36.8514 30.569c.5879-.4185 1.0357-.9032 1.4339-1.5171-.2651.6742-.6166 1.2666-1.1472 1.8351-.5761.6286-1.248 1.1354-1.7366 1.4117l-.3417-.7851C35.5084 31.3704 36.2173 31.0296 36.8514 30.569z"></path><path fill="#FFCA67" d="M39.2301,12.2556l0.0007,0.0013c3.4388,1.0741,7.0984-0.8435,8.1725-4.2823l-0.0007-0.0013
		C43.9638,6.8992,40.3042,8.8168,39.2301,12.2556z"></path><path fill="#F5B948" d="M41.1848,9.2705c-0.8887,0.767-1.5792,1.7829-1.9547,2.9851l0.0007,0.0013
		c2.6065,0.8141,5.3387-0.0906,6.976-2.0732c-1.6492,1.4281-3.9798,1.9952-6.2165,1.2966l-0.0007-0.0013
		C40.2496,10.6467,40.6606,9.9029,41.1848,9.2705z"></path><path fill="#FFCA67" d="M39.1303,12.2054l-0.0014,0.0005c-3.2223-1.6113-4.5288-5.5309-2.9175-8.7532l0.0014-0.0005
		C39.4352,5.0635,40.7416,8.9831,39.1303,12.2054z"></path><path fill="#F5B948" d="M39.7925,8.6992c0.1083,1.1689-0.0989,2.3797-0.6622,3.5062l-0.0014,0.0005
		c-2.4425-1.2213-3.7833-3.7681-3.5878-6.3319c0.1976,2.1726,1.4833,4.1976,3.5792,5.2457l0.0014-0.0005
		C39.5117,10.3393,39.7316,9.5183,39.7925,8.6992z"></path><path fill="#FFCA67" d="M36.3389,18.9721l0.0009,0.0011c3.576,0.4375,6.8306-2.1076,7.2682-5.6835l-0.0009-0.0011
		C40.0311,12.8511,36.7764,15.3961,36.3389,18.9721z"></path><path fill="#F5B948" d="M37.7243,15.6839c-0.7361,0.9144-1.2325,2.0381-1.3855,3.2882l0.0009,0.0011
		c2.7105,0.3316,5.2352-1.0502,6.489-3.2952c-1.3652,1.7016-3.5557,2.679-5.8816,2.3945l-0.0009-0.0011
		C37.0521,17.206,37.3225,16.4003,37.7243,15.6839z"></path><path fill="#FFCA67" d="M36.0411,18.9254l-0.0014,0.0001c-2.7652-2.3092-3.135-6.4242-0.8258-9.1895l0.0014-0.0001
		C37.9806,12.0452,38.3504,16.1602,36.0411,18.9254z"></path><path fill="#F5B948" d="M37.492,15.6656c-0.1635,1.1624-0.6436,2.2932-1.4509,3.2598l-0.0014,0.0001
		c-2.096-1.7503-2.815-4.5372-2.035-6.9873c-0.3074,2.1598,0.478,4.4262,2.2766,5.9282l0.0014-0.0001
		C36.8416,17.1971,37.2443,16.4487,37.492,15.6656z"></path><path fill="#FFCA67" d="M33.9978,24.479l0.0008,0.0012c3.5175,0.7791,7.0017-1.4415,7.7808-4.9589l-0.0008-0.0012
		C38.2611,18.741,34.7769,20.9616,33.9978,24.479z"></path><path fill="#F5B948" d="M35.6928,21.3391c-0.8206,0.8395-1.4226,1.9103-1.695,3.1399l0.0008,0.0012
		c2.6662,0.5905,5.312-0.5423,6.7757-2.6564c-1.5224,1.5626-3.7967,2.325-6.0846,1.8183l-0.0008-0.0012
		C34.8775,22.7895,35.224,22.0136,35.6928,21.3391z"></path><path fill="#FFCA67" d="M33.7668,24.681l-0.0014,0.0001c-2.7995-2.2676-3.2308-6.3766-0.9631-9.1761l0.0014-0.0001
		C35.6031,17.7726,36.0344,21.8816,33.7668,24.681z"></path><path fill="#F5B948" d="M35.1688,21.3999c-0.1461,1.1648-0.6093,2.3025-1.402,3.2812l-0.0014,0.0001
		c-2.1219-1.7188-2.8825-4.4946-2.1393-6.9561c-0.2751,2.1641,0.5441,4.4186,2.365,5.8935l0.0014-0.0002
		C34.5413,22.9409,34.9328,22.1866,35.1688,21.3999z"></path><path fill="#FFCA67" d="M31.6506,30.7419l0.0008,0.0012c3.5573,0.5698,6.9041-1.8528,7.4739-5.4101l-0.0008-0.0012
		C35.5672,24.762,32.2205,27.1846,31.6506,30.7419z"></path><path fill="#F5B948" d="M33.157,27.5073c-0.7695,0.8865-1.3072,1.991-1.5064,3.2346l0.0008,0.0012
		c2.6964,0.4319,5.2705-0.8554,6.6066-3.0523c-1.4273,1.6498-3.6526,2.5453-5.9663,2.1747l-0.0008-0.0012
		C32.4289,29.0034,32.729,28.2083,33.157,27.5073z"></path><path fill="#FFCA67" d="M31.2096,30.7831l-0.0014,0.0001c-2.7104-2.3733-2.9838-6.4958-0.6105-9.2063l0.0014-0.0001
		C33.3095,23.9501,33.5829,28.0726,31.2096,30.7831z"></path><path fill="#F5B948" d="M32.7364,27.5581c-0.1907,1.1583-0.6971,2.2775-1.5268,3.225l-0.0014,0.0001
		c-2.0545-1.7989-2.708-4.6018-1.8709-7.033c-0.3579,2.152,0.3743,4.4362,2.1372,5.9799l0.0014-0.0001
		C32.0502,29.0739,32.4704,28.3352,32.7364,27.5581z"></path><path fill="#FFCA67" d="M29.3146,36.9931l0.0009,0.0011c3.5846,0.3608,6.7839-2.2534,7.1445-5.838l-0.0009-0.0011
		C32.8745,30.7943,29.6752,33.4085,29.3146,36.9931z"></path><path fill="#F5B948" d="M30.6291,33.6759c-0.7163,0.93-1.1885,2.0641-1.3145,3.3172l0.0009,0.0011
		c2.7171,0.2735,5.2115-1.1621,6.4168-3.4334c-1.3283,1.7305-3.4974,2.7546-5.8289,2.52l-0.0009-0.0011
		C29.9897,35.2121,30.2428,34.4008,30.6291,33.6759z"></path><path fill="#FFCA67" d="M29.1216,36.8652l-0.0014,0.0002c-2.8347-2.2234-3.3304-6.3251-1.107-9.1598l0.0014-0.0002
		C30.8492,29.9287,31.345,34.0305,29.1216,36.8652z"></path><path fill="#F5B948" d="M30.4719,33.5624c-0.1278,1.1669-0.5731,2.3118-1.3503,3.3028l-0.0014,0.0002
		c-2.1486-1.6853-2.9527-4.4488-2.2482-6.9217c-0.2411,2.1682,0.6134,4.4095,2.4572,5.8556l0.0014-0.0002
		C29.8687,35.1131,30.2483,34.3528,30.4719,33.5624z"></path><path fill="#696967" d="M27.7133,48.9836c-0.0286-1.5184-0.0555-2.9505,0.437-5.3709c0.3243-1.7949,0.7536-3.5801,1.2492-5.3485
		c0.9849-3.5398,2.1799-7.0289,3.4599-10.4852c1.2849-3.4554,2.6651-6.8777,4.106-10.2748
		c1.4444-3.3957,2.9438-6.7694,4.5214-10.1072c-1.6632,3.2963-3.2497,6.6317-4.7826,9.9923
		c-1.5294,3.3622-2.9996,6.7529-4.3772,10.1841c-1.3728,3.4328-2.663,6.9036-3.7495,10.4516
		c-0.5463,1.7728-1.0285,3.5696-1.408,5.3986c-0.754,3.2783-0.5777,5.3092-0.5957,5.6286L27.7133,48.9836z"></path></svg>